PathFileType	4	(X/Y/Z)	OpenSim_Sub01_EMGBaseline_Gyro.trc
DataRate	CameraRate	NumFrames	NumMarkers	Units	OrigDataRate	OrigDataStartFrame	OrigNumFrames
100	100	31	8	m	100	4753	7604
Frame#	Time	torso_imu_offset_imu	pelvis_imu_offset_imu	tibia_r_imu_offset_imu	femur_r_imu_offset_imu	tibia_l_imu_offset_imu	femur_l_imu_offset_imu	toes_r_imu_offset_imu	toes_l_imu_offset_imu
				X1	Y1	Z1	X2	Y2	Z2	X3	Y3	Z3	X4	Y4	Z4	X5	Y5	Z5	X6	Y6	Z6	X7	Y7	Z7	X8		Y8	Z8	

4753	47.52000000	-0.13898764	-0.10630173	-0.06934733	-0.08789475	0.04113701	0.27155037	0.03157125	0.47148168	3.70963163	0.84654162	0.10563330	0.82879705	0.51169996	-0.10427445	0.65142837	0.70069225	-0.42968729	0.58687012	-0.38393248	4.48665150	1.64783756	0.09449228	-0.16628708	0.05427806
4754	47.53000000	-0.10891015	-0.11059768	-0.05051155	-0.01922616	0.05926216	0.23160129	-0.04698945	0.49540957	3.89014399	0.74377573	0.09410488	0.68758732	0.41460579	-0.09223828	0.67164102	0.72512839	-0.40877184	0.48925062	-0.42993566	4.57303409	1.65398348	0.08360859	-0.14874601	0.07220442
4755	47.54000000	-0.08804234	-0.10658933	-0.03021181	0.04665833	0.06749681	0.20015277	-0.04419658	0.49814920	4.02105032	0.60028195	0.07752391	0.56672783	0.27327358	-0.06554958	0.69792986	0.69856328	-0.38049066	0.39925148	-0.40685645	4.64527089	1.60296148	0.07296926	-0.12883078	0.08592723
4756	47.55000000	-0.06911728	-0.10113224	-0.00943647	0.10068687	0.07409750	0.18076980	0.03585962	0.49278982	4.15256127	0.40024157	0.04941716	0.47978979	0.14369155	-0.03952182	0.72215397	0.61674971	-0.34798204	0.38050856	-0.38285242	4.71347653	1.52182812	0.06040142	-0.10922035	0.09326715
4757	47.56000000	-0.04848411	-0.09857278	0.01173451	0.14096704	0.08162927	0.17408301	0.16606718	0.49257662	4.28554614	0.16545979	0.01478782	0.41516445	0.05007851	-0.02029097	0.74366470	0.48823315	-0.31403455	0.42778493	-0.38038987	4.77851160	1.43412172	0.04655273	-0.09085793	0.09626593
4758	47.57000000	-0.02527635	-0.10132439	0.03391966	0.17113261	0.08827633	0.17846322	0.30159171	0.51086913	4.38290448	-0.05330519	-0.01253014	0.34186746	-0.00780428	-0.00692781	0.76757894	0.33140824	-0.28116900	0.48283731	-0.38676201	4.83411129	1.36066719	0.03424148	-0.07335159	0.10021362
4759	47.58000000	0.00027973	-0.10992754	0.05674401	0.19431500	0.09275072	0.19105870	0.39676911	0.55346561	4.42429509	-0.21785954	-0.02344902	0.23908500	-0.03263650	0.00209380	0.79643062	0.16675253	-0.25385405	0.50204493	-0.38862169	4.87170913	1.31545432	0.02555489	-0.05764508	0.10887659
4760	47.59000000	0.02492375	-0.11950504	0.07682705	0.21173044	0.09566767	0.20555761	0.40482454	0.60368775	4.44207788	-0.32955643	-0.02365946	0.11770527	-0.03248138	0.00953366	0.82463793	0.02017992	-0.24236666	0.48928824	-0.37340754	4.87644414	1.29237031	0.02024177	-0.04875296	0.12124557
4761	47.60000000	0.04517509	-0.12451968	0.09049442	0.22422896	0.09805867	0.21524881	0.28431508	0.64123982	4.47587250	-0.39715885	-0.02135200	-0.00643038	-0.01523743	0.01809834	0.84549748	-0.08331360	-0.25687612	0.45742250	-0.32980145	4.83297650	1.28138432	0.01798551	-0.05215600	0.13498168
4762	47.61000000	0.06265133	-0.12454590	0.09798918	0.23247884	0.10191845	0.21701766	0.07665180	0.65387826	4.52813234	-0.43089955	-0.02124057	-0.13106743	0.02855507	0.02628504	0.85797522	-0.14750596	-0.28987266	0.42218423	-0.26291471	4.73621516	1.26945174	0.02395887	-0.06904885	0.14106217
4763	47.62000000	0.08289286	-0.12309194	0.10256914	0.23700858	0.10998094	0.21051830	-0.11298331	0.63556257	4.57270601	-0.44214318	-0.02536101	-0.26440628	0.12170205	0.02935197	0.86540081	-0.19831745	-0.32024139	0.40152425	-0.19050095	4.58896374	1.24121517	0.04755468	-0.09732661	0.12532629
4764	47.63000000	0.10911594	-0.12227955	0.10636627	0.23842187	0.12196292	0.19568212	-0.19144058	0.58632293	4.59043622	-0.44302659	-0.03323537	-0.40919117	0.26589602	0.02437272	0.87041537	-0.25175436	-0.33216622	0.40862808	-0.12388108	4.40105047	1.19071879	0.09072037	-0.13467217	0.08306003
4765	47.64000000	0.13733116	-0.11980990	0.10793676	0.23755667	0.12855934	0.17305274	-0.10619767	0.52375408	4.58513456	-0.44789451	-0.03712090	-0.55115485	0.39907233	0.01406271	0.87328062	-0.29267192	-0.32661598	0.44235222	-0.05429545	4.20257333	1.14011982	0.13295743	-0.17839005	0.03801234
4766	47.65000000	0.16251107	-0.11279983	0.10531605	0.23541738	0.11932582	0.14334873	0.18194700	0.46774295	4.56328587	-0.46858275	-0.02798589	-0.67352169	0.45172509	0.00209371	0.87393955	-0.30095526	-0.30819359	0.49798470	0.02898515	4.02585067	1.11710351	0.15119497	-0.22554194	0.01771042
4767	47.66000000	0.18403026	-0.10185197	0.09863960	0.23485161	0.09172774	0.10821368	0.62526940	0.42388365	4.50783324	-0.47327793	0.00239080	-0.76904460	0.41938346	-0.00916042	0.87414822	-0.26829909	-0.28944530	0.55705861	0.11060907	3.88034920	1.15429858	0.14596622	-0.27060257	0.02747466
4768	47.67000000	0.20465097	-0.09025121	0.08965945	0.24012419	0.04932057	0.07000352	1.10913889	0.38677049	4.38361233	-0.39659820	0.06159659	-0.83781013	0.34763532	-0.01832542	0.87705622	-0.19549395	-0.28902625	0.59052926	0.15515849	3.75793432	1.28812742	0.13597022	-0.30605886	0.05553240
4769	47.68000000	0.22581519	-0.07986918	0.08018887	0.25332156	-0.00274023	0.03149802	1.52900792	0.35450633	4.17500809	-0.21574073	0.14422865	-0.87818461	0.27608966	-0.02464307	0.88289780	-0.08993849	-0.31802097	0.58333759	0.14119582	3.63660714	1.53935789	0.13411660	-0.32918264	0.09202827
4770	47.69000000	0.24478289	-0.06817311	0.07209942	0.26994898	-0.05501042	-0.00331808	1.81540412	0.33646018	3.92587861	-0.03698879	0.20633314	-0.88286236	0.22276345	-0.02910924	0.88313816	0.02202837	-0.36455144	0.56279027	0.09035831	3.45451733	1.88195173	0.13472375	-0.35161549	0.13411059
4771	47.70000000	0.25803728	-0.05208035	0.06720407	0.28401306	-0.09760373	-0.03033946	1.90478663	0.34172782	3.68499628	0.01928592	0.20094149	-0.84401735	0.20070113	-0.03279725	0.86877991	0.11127595	-0.41296245	0.56207499	0.02899873	3.14752679	2.27767289	0.12922554	-0.38694584	0.17972297
4772	47.71000000	0.26200723	-0.03246499	0.06627795	0.28530182	-0.12588443	-0.04699016	1.72533510	0.34414960	3.41013776	-0.02098660	0.14262403	-0.76172915	0.20827585	-0.03308727	0.84816310	0.15929698	-0.45460415	0.58517532	-0.06513508	2.72751067	2.63525590	0.11732629	-0.43813960	0.21933391
4773	47.72000000	0.25308123	-0.01324629	0.06929651	0.26036247	-0.13925888	-0.05187288	1.19892898	0.29044543	2.98906240	-0.01930120	0.09329859	-0.64216151	0.23256512	-0.02451818	0.84296810	0.15576821	-0.48621863	0.61359689	-0.25167105	2.26483521	2.82263344	0.10509583	-0.49998674	0.23766194
4774	47.73000000	0.22942348	0.00257968	0.07530054	0.20441636	-0.13751649	-0.04543338	0.34467343	0.15215345	2.34932061	0.10183193	0.08256000	-0.48957338	0.25811954	-0.00391824	0.86710218	0.09868170	-0.50356561	0.63284499	-0.53746235	1.79940597	2.73363099	0.09735238	-0.56883531	0.22506539
4775	47.74000000	0.19447781	0.01499270	0.08061447	0.13870712	-0.12127585	-0.03350368	-0.52894629	-0.02336978	1.54205063	0.22999543	0.04033874	-0.30209874	0.26284458	0.02486445	0.91035580	0.01011205	-0.49907365	0.64202768	-0.76968943	1.27614623	2.34213107	0.09470857	-0.64628808	0.18910038
4776	47.75000000	0.15267619	0.02464369	0.08126252	0.08776337	-0.09151268	-0.02263879	-1.07756854	-0.17678967	0.64356205	0.22528674	-0.11486275	-0.07826242	0.22555420	0.05685516	0.95872590	-0.08463183	-0.46560233	0.64269686	-0.77953773	0.62960924	1.64453047	0.09690405	-0.73485482	0.14052457
4777	47.76000000	0.10863031	0.03399321	0.07629106	0.05327869	-0.05225197	-0.01531022	-1.22056271	-0.27929040	-0.23509390	0.06190633	-0.35982585	0.16061769	0.15703891	0.08964139	1.00816442	-0.17846974	-0.41167615	0.63534028	-0.60058173	-0.09805716	0.75263421	0.10225067	-0.83608035	0.09042443
4778	47.77000000	0.06708967	0.04689420	0.06707288	0.01937543	-0.00986477	-0.01084679	-1.08030379	-0.32556063	-0.95617004	-0.19810995	-0.59074612	0.37568238	0.09270559	0.12278134	1.06228592	-0.27834621	-0.35787234	0.61962627	-0.42214195	-0.78189422	-0.13294544	0.10796407	-0.95076605	0.05013521
4779	47.78000000	0.03206664	0.06636420	0.05499417	-0.02065001	0.03100321	-0.00951051	-0.76439281	-0.32554797	-1.44532506	-0.49227594	-0.73473818	0.53397353	0.06954463	0.15359935	1.12394021	-0.38132704	-0.31692339	0.59489109	-0.36664780	-1.31549639	-0.85475446	0.11505589	-1.07884983	0.02521603
4780	47.79000000	0.00537276	0.09283182	0.04130305	-0.04489831	0.07101225	-0.01457653	-0.32101448	-0.33274437	-1.81866360	-0.76348110	-0.81694980	0.62140853	0.12737021	0.17263136	1.19311892	-0.45405222	-0.27733061	0.55954703	-0.34586236	-1.65391719	-1.39036819	0.13590125	-1.21776079	0.00404386
4781	47.80000000	-0.01135744	0.12589525	0.02694692	-0.02762889	0.11141985	-0.02955227	0.19705910	-0.40549317	-2.21168567	-0.95752060	-0.87938719	0.62765579	0.30159065	0.17010171	1.26903363	-0.45952391	-0.22347367	0.51235986	-0.23783650	-1.77229262	-1.73746277	0.18307759	-1.36483428	-0.02711423
4782	47.81000000	-0.01304926	0.15988870	0.00875494	0.03524685	0.14774150	-0.05308519	0.50404474	-0.55426768	-2.52324980	-1.04879603	-0.94510703	0.54629327	0.55387768	0.15035165	1.34713071	-0.39048266	-0.14509424	0.45994111	0.00102229	-1.77622995	-1.82093383	0.24075460	-1.52294343	-0.06602782
4783	47.82000000	0.00801541	0.18509632	-0.01960926	0.13114485	0.17107426	-0.08007938	0.13508320	-0.75266611	-2.47016326	-1.03375033	-1.02255408	0.37391527	0.78915439	0.12858732	1.41996150	-0.26256581	-0.03607074	0.41493491	0.35396890	-1.87172441	-1.50976730	0.27124477	-1.69922336	-0.09817900
